<mxfile host="app.diagrams.net" modified="2023-06-21T15:03:20.573Z" agent="Mozilla/5.0 (Windows NT 10.0; Win64; x64) AppleWebKit/537.36 (KHTML, like Gecko) Chrome/114.0.0.0 Safari/537.36 Edg/114.0.1823.51" version="21.5.0" etag="iGTtC9LvE1N2Rt5Vlrvr" type="github">
  <diagram name="Pagina-1" id="8LlZCiz9-UNyFHqPdTef">
    <mxGraphModel>
      <root>
        <mxCell id="0" />
        <mxCell id="1" parent="0" />
      </root>
    </mxGraphModel>
  </diagram>
</mxfile>
